<svg width="25" height="24" viewBox="0 0 25 24" fill="none" xmlns="http://www.w3.org/2000/svg">
<path d="M10.4965 11.0209C10.31 11.1541 10.0702 11.2341 9.77714 11.2341H8.12525V9.50224H9.67057C9.83043 9.50224 9.96365 9.50224 10.0969 9.52888C10.2301 9.55553 10.3367 9.60881 10.4432 9.6621C10.5498 9.74203 10.6297 9.82196 10.683 9.92854C10.7363 10.0351 10.7629 10.195 10.7629 10.3548C10.7629 10.6479 10.683 10.8877 10.4965 11.0209Z" fill="#CBD5E1"/>
<path d="M10.31 14.3247C10.1768 14.3513 10.0169 14.378 9.85707 14.378H8.12525V12.3264H9.88372C10.2301 12.3264 10.5232 12.4064 10.7363 12.5662C10.9495 12.7527 11.056 13.0192 11.056 13.3922C11.056 13.5787 11.0027 13.7385 10.9495 13.8718C10.8695 14.005 10.7896 14.0849 10.683 14.1648C10.5764 14.2448 10.4432 14.2981 10.31 14.3247Z" fill="#CBD5E1"/>
<path d="M15.8518 11.2607C16.1982 11.2607 16.4913 11.3673 16.6778 11.5538C16.8643 11.7403 16.9975 12.0067 17.0508 12.4064H14.6529C14.6529 12.3181 14.6712 12.2298 14.6926 12.1264C14.697 12.1049 14.7016 12.0829 14.7062 12.06C14.7328 11.9268 14.7861 11.7936 14.8927 11.687C14.9993 11.5804 15.1058 11.4739 15.2657 11.3939C15.4256 11.314 15.6121 11.2607 15.8518 11.2607Z" fill="#CBD5E1"/>
<path fill-rule="evenodd" clip-rule="evenodd" d="M12.5 0C5.87258 0 0.5 5.37258 0.5 12C0.5 18.6274 5.87258 24 12.5 24C19.1274 24 24.5 18.6274 24.5 12C24.5 5.37258 19.1274 0 12.5 0ZM10.9495 8.35657C10.6564 8.27664 10.3367 8.25 9.99029 8.25H6.5V15.6036H10.0702C10.3899 15.6036 10.7097 15.5503 11.0294 15.4704C11.3491 15.3904 11.6422 15.2572 11.882 15.0974C12.1218 14.9375 12.3349 14.6977 12.4681 14.4313C12.6013 14.1648 12.6813 13.8451 12.6813 13.4721C12.6813 13.0192 12.5481 12.6195 12.3349 12.2998C12.1218 11.9801 11.7754 11.7403 11.3225 11.6071C11.6422 11.4472 11.9086 11.2341 12.0685 10.9943C12.255 10.7545 12.3349 10.4348 12.3349 10.0618C12.3349 9.74203 12.2816 9.44895 12.1751 9.20916C12.0685 8.96937 11.9086 8.78287 11.6955 8.64965C11.4823 8.51643 11.2425 8.40986 10.9495 8.35657ZM15.9584 14.6711C15.5321 14.6711 15.2124 14.5645 14.9993 14.3513C14.7861 14.1382 14.6262 13.7385 14.6262 13.3123H18.4895C18.5162 12.886 18.4895 12.5129 18.4363 12.1399C18.3297 11.7669 18.1698 11.4206 17.9567 11.1275C17.7435 10.8078 17.4771 10.5946 17.1307 10.4081C16.7844 10.2216 16.3847 10.1417 15.9318 10.1417C15.5055 10.1417 15.1591 10.2216 14.8128 10.3548C14.493 10.488 14.2 10.7012 13.9602 10.941C13.7204 11.2074 13.5339 11.5005 13.4007 11.8469C13.2674 12.1932 13.2141 12.5662 13.2141 12.9659C13.2141 13.3922 13.2674 13.7652 13.4007 14.1116C13.5072 14.4579 13.6937 14.751 13.9335 14.9908C14.1733 15.2572 14.4397 15.4437 14.7861 15.5769C15.1325 15.7102 15.5055 15.7901 15.9318 15.7901C16.5446 15.7901 17.0508 15.6302 17.4771 15.3638C17.9034 15.0707 18.2231 14.6178 18.4363 13.9783H17.1307C17.0774 14.1382 16.9442 14.2981 16.7311 14.4579C16.5179 14.5911 16.2515 14.6711 15.9584 14.6711ZM17.3172 8.75623H14.3332V9.4756H17.3172V8.75623Z" fill="#CBD5E1"/>
</svg>
