<svg width="25" height="24" viewBox="0 0 25 24" fill="none" xmlns="http://www.w3.org/2000/svg">
<path d="M17.624 11.952C17.6 10.74 17.18 9.63601 16.46 8.75999C16.352 8.904 15.488 10.02 13.616 10.776C13.7358 11.0157 13.8437 11.2673 13.9516 11.519L13.952 11.52C13.97 11.5621 13.9881 11.6072 14.0061 11.6523C14.0241 11.6972 14.042 11.7421 14.06 11.784C15.764 11.58 17.456 11.916 17.624 11.952Z" fill="#CBD5E1"/>
<path d="M15.896 8.172C14.996 7.38 13.796 6.888 12.5 6.888C12.08 6.888 11.684 6.936 11.3 7.02C11.316 7.0433 11.3439 7.08232 11.382 7.13569C11.6578 7.52205 12.4699 8.65986 13.208 10.02C15.032 9.336 15.8 8.304 15.896 8.172Z" fill="#CBD5E1"/>
<path d="M12.212 10.332C11.36 8.82 10.448 7.548 10.316 7.368C8.88799 8.04 7.82001 9.36 7.47199 10.956H7.48442C7.76796 10.9562 9.85056 10.9578 12.212 10.332Z" fill="#CBD5E1"/>
<path d="M7.376 11.856V12.012C7.376 13.32 7.868 14.52 8.69601 15.432L8.70432 15.4186C8.87025 15.1514 10.2706 12.8957 12.86 12.06C12.8919 12.0494 12.9238 12.0411 12.9546 12.0331C12.9934 12.023 13.0306 12.0134 13.064 12C12.932 11.7 12.788 11.412 12.644 11.124C10.088 11.892 7.592 11.868 7.376 11.856Z" fill="#CBD5E1"/>
<path d="M9.35601 16.044C10.22 16.716 11.312 17.124 12.5 17.124C13.208 17.124 13.892 16.98 14.504 16.716C14.432 16.26 14.132 14.7 13.412 12.828C13.4 12.828 13.388 12.828 13.376 12.84C10.484 13.848 9.452 15.852 9.35601 16.044Z" fill="#CBD5E1"/>
<path d="M14.36 12.6C15.032 14.436 15.308 15.936 15.356 16.248C16.508 15.48 17.324 14.244 17.552 12.816C17.5438 12.8138 17.533 12.8108 17.5198 12.8072C17.2435 12.7311 15.8946 12.3595 14.36 12.6Z" fill="#CBD5E1"/>
<path fill-rule="evenodd" clip-rule="evenodd" d="M12.5 24C5.87259 24 0.5 18.6274 0.5 12C0.5 5.37258 5.87259 0 12.5 0C19.1274 0 24.5 5.37258 24.5 12C24.5 18.6274 19.1274 24 12.5 24ZM6.5 12C6.5 8.688 9.18801 6 12.5 6C15.8 6 18.5 8.688 18.5 12C18.5 15.312 15.8 18 12.5 18C9.18801 18 6.5 15.312 6.5 12Z" fill="#CBD5E1"/>
</svg>
