<svg width="25" height="24" viewBox="0 0 25 24" fill="none" xmlns="http://www.w3.org/2000/svg">
<path d="M12.1411 13.5097V10.4903H10.5826C9.74885 10.4903 9.07293 11.1662 9.07293 12C9.07293 12.8306 9.74368 13.5046 10.5731 13.5097L10.5826 13.5097H12.1411Z" fill="#CBD5E1"/>
<path d="M9.07293 15.7549C9.07293 14.9243 9.74368 14.2503 10.5731 14.2452L10.5826 14.2452H12.1411V15.7305C12.1411 16.5747 11.4451 17.2646 10.5948 17.2646C9.75788 17.2646 9.07293 16.5856 9.07293 15.7549Z" fill="#CBD5E1"/>
<path d="M14.3863 13.5098C13.5525 13.5098 12.8766 12.8338 12.8766 12C12.8766 11.1662 13.5525 10.4903 14.3863 10.4903H14.435C15.2688 10.4903 15.9448 11.1662 15.9448 12C15.9448 12.8338 15.2688 13.5098 14.435 13.5098H14.3863Z" fill="#CBD5E1"/>
<path d="M14.435 9.75486H12.8766V6.73542H14.435C15.2688 6.73542 15.9448 7.41134 15.9448 8.24513C15.9448 9.07893 15.2688 9.75486 14.435 9.75486Z" fill="#CBD5E1"/>
<path d="M10.5826 6.73542H12.1411V9.75486H10.5826C9.74885 9.75486 9.07293 9.07893 9.07293 8.24513C9.07293 7.41134 9.74885 6.73542 10.5826 6.73542Z" fill="#CBD5E1"/>
<path fill-rule="evenodd" clip-rule="evenodd" d="M12.5 0C19.1274 0 24.5 5.37258 24.5 12C24.5 18.6274 19.1274 24 12.5 24C5.87258 24 0.5 18.6274 0.5 12C0.5 5.37258 5.87258 0 12.5 0ZM10.5826 6C9.34269 6 8.33751 7.00518 8.33751 8.24513C8.33751 9.03029 8.74054 9.72131 9.35101 10.1226C8.74054 10.5239 8.33751 11.2149 8.33751 12C8.33751 12.7852 8.74051 13.4762 9.35093 13.8775C8.74051 14.2787 8.33751 14.9697 8.33751 15.7549C8.33751 16.9979 9.35789 18 10.5948 18C11.8451 18 12.8766 16.987 12.8766 15.7305V13.6618C13.2753 14.0243 13.805 14.2452 14.3863 14.2452H14.435C15.675 14.2452 16.6802 13.24 16.6802 12C16.6802 11.2149 16.2771 10.5239 15.6667 10.1226C16.2771 9.72131 16.6802 9.03029 16.6802 8.24513C16.6802 7.00518 15.675 6 14.435 6H10.5826Z" fill="#CBD5E1"/>
</svg>
