<svg width="25" height="24" viewBox="0 0 25 24" fill="none" xmlns="http://www.w3.org/2000/svg">
<path fill-rule="evenodd" clip-rule="evenodd" d="M0.5 12C0.5 5.37258 5.87258 0 12.5 0C19.1274 0 24.5 5.37258 24.5 12C24.5 18.6274 19.1274 24 12.5 24C5.87258 24 0.5 18.6274 0.5 12ZM6.65 9.975V18H9.2V9.975H6.65ZM6.5 7.425C6.5 8.25 7.1 8.85 7.925 8.85C8.75 8.85 9.35 8.25 9.35 7.425C9.35 6.6 8.75 6 7.925 6C7.175 6 6.5 6.6 6.5 7.425ZM15.95 18H18.35V13.05C18.35 10.575 16.85 9.75 15.425 9.75C14.15 9.75 13.25 10.575 13.025 11.1V9.975H10.625V18H13.175V13.725C13.175 12.6 13.925 12 14.675 12C15.425 12 15.95 12.375 15.95 13.65V18Z" fill="#CBD5E1"/>
</svg>
