<svg width="25" height="24" viewBox="0 0 25 24" fill="none" xmlns="http://www.w3.org/2000/svg">
<path fill-rule="evenodd" clip-rule="evenodd" d="M12.5 24C5.87259 24 0.5 18.6274 0.5 12C0.5 5.37258 5.87259 0 12.5 0C19.1274 0 24.5 5.37258 24.5 12C24.5 18.6274 19.1274 24 12.5 24ZM7.77501 8.77501C7.84999 8.85 7.925 9 7.925 9.15001V14.4C8 14.625 7.925 14.775 7.77501 14.925L6.5 16.425V16.65H10.025V16.425L8.75 14.925C8.675 14.775 8.59999 14.625 8.59999 14.4V9.825L11.75 16.65H12.05L14.75 9.825V15.3C14.75 15.45 14.75 15.525 14.675 15.6L13.7 16.575V16.8H18.425V16.575L17.525 15.675C17.45 15.6 17.45 15.45 17.45 15.375V8.625C17.375 8.475 17.45 8.40001 17.525 8.325L18.5 7.42501V7.2H15.2L12.8 13.125L10.1 7.2H6.65001V7.42501L7.77501 8.77501Z" fill="#CBD5E1"/>
</svg>
