<svg width="25" height="24" viewBox="0 0 25 24" fill="none" xmlns="http://www.w3.org/2000/svg">
<path fill-rule="evenodd" clip-rule="evenodd" d="M0.5 12C0.5 5.37258 5.87258 0 12.5 0C19.1274 0 24.5 5.37258 24.5 12C24.5 18.6274 19.1274 24 12.5 24C5.87258 24 0.5 18.6274 0.5 12ZM17.075 8.625C17.6 8.55 18.05 8.475 18.5 8.25C18.2 8.775 17.75 9.225 17.225 9.525C17.375 13.05 14.825 16.875 10.25 16.875C8.9 16.875 7.625 16.425 6.5 15.75C7.775 15.9 9.125 15.525 10.025 14.85C8.9 14.85 8 14.1 7.7 13.125C8.075 13.2 8.45 13.125 8.825 13.05C7.7 12.75 6.875 11.7 6.875 10.575C7.25 10.725 7.625 10.875 8 10.875C6.95 10.125 6.575 8.7 7.25 7.575C8.525 9.075 10.325 10.05 12.35 10.125C11.975 8.625 13.175 7.125 14.75 7.125C15.425 7.125 16.1 7.425 16.55 7.875C17.15 7.725 17.675 7.575 18.125 7.275C17.975 7.875 17.6 8.325 17.075 8.625Z" fill="#CBD5E1"/>
</svg>
