<svg width="25" height="24" viewBox="0 0 25 24" fill="none" xmlns="http://www.w3.org/2000/svg">
<path d="M14.45 12L11.3 10.2V13.8L14.45 12Z" fill="#CBD5E1"/>
<path fill-rule="evenodd" clip-rule="evenodd" d="M0.5 12C0.5 5.37258 5.87258 0 12.5 0C19.1274 0 24.5 5.37258 24.5 12C24.5 18.6274 19.1274 24 12.5 24C5.87258 24 0.5 18.6274 0.5 12ZM17.15 8.025C17.675 8.175 18.05 8.55 18.2 9.075C18.5 10.05 18.5 12 18.5 12C18.5 12 18.5 13.95 18.275 14.925C18.125 15.45 17.75 15.825 17.225 15.975C16.25 16.2 12.5 16.2 12.5 16.2C12.5 16.2 8.675 16.2 7.775 15.975C7.25 15.825 6.875 15.45 6.725 14.925C6.5 13.95 6.5 12 6.5 12C6.5 12 6.5 10.05 6.65 9.075C6.8 8.55 7.175 8.175 7.7 8.025C8.675 7.8 12.425 7.8 12.425 7.8C12.425 7.8 16.25 7.8 17.15 8.025Z" fill="#CBD5E1"/>
</svg>
